ISO-10303-21;
HEADER;
/* Generated by software containing ST-Developer
 * from STEP Tools, Inc. (www.steptools.com) 
 */

FILE_DESCRIPTION(
/* description */ (''),
/* implementation_level */ '2;1');

FILE_NAME(
/* name */ 'servo bracket.step',
/* time_stamp */ '2026-05-11T22:29:26+06:00',
/* author */ (''),
/* organization */ (''),
/* preprocessor_version */ 'ST-DEVELOPER v20.1',
/* originating_system */ 'Autodesk Translation Framework v14.24.0.0',
/* authorisation */ '');

FILE_SCHEMA (('AUTOMOTIVE_DESIGN { 1 0 10303 214 3 1 1 }'));
ENDSEC;

DATA;
#10=MECHANICAL_DESIGN_GEOMETRIC_PRESENTATION_REPRESENTATION('',(#13),#459);
#11=SHAPE_REPRESENTATION_RELATIONSHIP('SRR','None',#466,#12);
#12=ADVANCED_BREP_SHAPE_REPRESENTATION('',(#14),#458);
#13=STYLED_ITEM('',(#475),#14);
#14=MANIFOLD_SOLID_BREP('Body1',#271);
#15=FACE_BOUND('',#44,.T.);
#16=FACE_BOUND('',#56,.T.);
#17=PLANE('',#288);
#18=PLANE('',#289);
#19=PLANE('',#295);
#20=PLANE('',#300);
#21=PLANE('',#301);
#22=PLANE('',#302);
#23=PLANE('',#303);
#24=PLANE('',#304);
#25=PLANE('',#305);
#26=PLANE('',#306);
#27=FACE_OUTER_BOUND('',#41,.T.);
#28=FACE_OUTER_BOUND('',#42,.T.);
#29=FACE_OUTER_BOUND('',#43,.T.);
#30=FACE_OUTER_BOUND('',#45,.T.);
#31=FACE_OUTER_BOUND('',#46,.T.);
#32=FACE_OUTER_BOUND('',#47,.T.);
#33=FACE_OUTER_BOUND('',#48,.T.);
#34=FACE_OUTER_BOUND('',#49,.T.);
#35=FACE_OUTER_BOUND('',#50,.T.);
#36=FACE_OUTER_BOUND('',#51,.T.);
#37=FACE_OUTER_BOUND('',#52,.T.);
#38=FACE_OUTER_BOUND('',#53,.T.);
#39=FACE_OUTER_BOUND('',#54,.T.);
#40=FACE_OUTER_BOUND('',#55,.T.);
#41=EDGE_LOOP('',(#181,#182,#183,#184));
#42=EDGE_LOOP('',(#185,#186,#187,#188));
#43=EDGE_LOOP('',(#189,#190,#191,#192,#193,#194,#195,#196));
#44=EDGE_LOOP('',(#197,#198,#199,#200));
#45=EDGE_LOOP('',(#201,#202,#203,#204));
#46=EDGE_LOOP('',(#205,#206,#207,#208));
#47=EDGE_LOOP('',(#209,#210,#211,#212));
#48=EDGE_LOOP('',(#213,#214,#215,#216));
#49=EDGE_LOOP('',(#217,#218,#219,#220));
#50=EDGE_LOOP('',(#221,#222,#223,#224));
#51=EDGE_LOOP('',(#225,#226,#227,#228));
#52=EDGE_LOOP('',(#229,#230,#231,#232));
#53=EDGE_LOOP('',(#233,#234,#235,#236));
#54=EDGE_LOOP('',(#237,#238,#239,#240));
#55=EDGE_LOOP('',(#241,#242,#243,#244,#245,#246,#247,#248));
#56=EDGE_LOOP('',(#249,#250,#251,#252));
#57=LINE('',#387,#85);
#58=LINE('',#390,#86);
#59=LINE('',#393,#87);
#60=LINE('',#395,#88);
#61=LINE('',#396,#89);
#62=LINE('',#399,#90);
#63=LINE('',#403,#91);
#64=LINE('',#407,#92);
#65=LINE('',#411,#93);
#66=LINE('',#413,#94);
#67=LINE('',#415,#95);
#68=LINE('',#416,#96);
#69=LINE('',#419,#97);
#70=LINE('',#422,#98);
#71=LINE('',#425,#99);
#72=LINE('',#426,#100);
#73=LINE('',#430,#101);
#74=LINE('',#433,#102);
#75=LINE('',#438,#103);
#76=LINE('',#439,#104);
#77=LINE('',#440,#105);
#78=LINE('',#443,#106);
#79=LINE('',#444,#107);
#80=LINE('',#447,#108);
#81=LINE('',#448,#109);
#82=LINE('',#450,#110);
#83=LINE('',#452,#111);
#84=LINE('',#454,#112);
#85=VECTOR('',#313,10.);
#86=VECTOR('',#316,10.);
#87=VECTOR('',#319,10.);
#88=VECTOR('',#320,10.);
#89=VECTOR('',#321,10.);
#90=VECTOR('',#324,10.);
#91=VECTOR('',#327,10.);
#92=VECTOR('',#330,10.);
#93=VECTOR('',#333,10.);
#94=VECTOR('',#334,10.);
#95=VECTOR('',#335,10.);
#96=VECTOR('',#336,10.);
#97=VECTOR('',#339,10.);
#98=VECTOR('',#342,10.);
#99=VECTOR('',#345,10.);
#100=VECTOR('',#346,10.);
#101=VECTOR('',#351,10.);
#102=VECTOR('',#354,10.);
#103=VECTOR('',#359,10.);
#104=VECTOR('',#360,10.);
#105=VECTOR('',#361,10.);
#106=VECTOR('',#364,10.);
#107=VECTOR('',#365,10.);
#108=VECTOR('',#368,10.);
#109=VECTOR('',#369,10.);
#110=VECTOR('',#372,10.);
#111=VECTOR('',#375,10.);
#112=VECTOR('',#378,10.);
#113=CIRCLE('',#286,2.);
#114=CIRCLE('',#287,2.);
#115=CIRCLE('',#290,2.);
#116=CIRCLE('',#291,2.);
#117=CIRCLE('',#292,2.);
#118=CIRCLE('',#294,2.);
#119=CIRCLE('',#297,2.);
#120=CIRCLE('',#299,2.);
#121=VERTEX_POINT('',#383);
#122=VERTEX_POINT('',#384);
#123=VERTEX_POINT('',#386);
#124=VERTEX_POINT('',#388);
#125=VERTEX_POINT('',#392);
#126=VERTEX_POINT('',#394);
#127=VERTEX_POINT('',#398);
#128=VERTEX_POINT('',#400);
#129=VERTEX_POINT('',#402);
#130=VERTEX_POINT('',#404);
#131=VERTEX_POINT('',#406);
#132=VERTEX_POINT('',#409);
#133=VERTEX_POINT('',#410);
#134=VERTEX_POINT('',#412);
#135=VERTEX_POINT('',#414);
#136=VERTEX_POINT('',#418);
#137=VERTEX_POINT('',#420);
#138=VERTEX_POINT('',#424);
#139=VERTEX_POINT('',#428);
#140=VERTEX_POINT('',#432);
#141=VERTEX_POINT('',#436);
#142=VERTEX_POINT('',#437);
#143=VERTEX_POINT('',#442);
#144=VERTEX_POINT('',#446);
#145=EDGE_CURVE('',#121,#122,#113,.T.);
#146=EDGE_CURVE('',#122,#123,#57,.T.);
#147=EDGE_CURVE('',#123,#124,#114,.T.);
#148=EDGE_CURVE('',#124,#121,#58,.T.);
#149=EDGE_CURVE('',#125,#122,#59,.T.);
#150=EDGE_CURVE('',#126,#125,#60,.T.);
#151=EDGE_CURVE('',#123,#126,#61,.T.);
#152=EDGE_CURVE('',#121,#127,#62,.T.);
#153=EDGE_CURVE('',#128,#127,#115,.T.);
#154=EDGE_CURVE('',#128,#129,#63,.T.);
#155=EDGE_CURVE('',#130,#129,#116,.T.);
#156=EDGE_CURVE('',#130,#131,#64,.T.);
#157=EDGE_CURVE('',#125,#131,#117,.T.);
#158=EDGE_CURVE('',#132,#133,#65,.T.);
#159=EDGE_CURVE('',#133,#134,#66,.T.);
#160=EDGE_CURVE('',#134,#135,#67,.T.);
#161=EDGE_CURVE('',#135,#132,#68,.T.);
#162=EDGE_CURVE('',#127,#136,#69,.T.);
#163=EDGE_CURVE('',#136,#137,#118,.T.);
#164=EDGE_CURVE('',#137,#128,#70,.T.);
#165=EDGE_CURVE('',#138,#137,#71,.T.);
#166=EDGE_CURVE('',#129,#138,#72,.T.);
#167=EDGE_CURVE('',#138,#139,#119,.T.);
#168=EDGE_CURVE('',#139,#130,#73,.T.);
#169=EDGE_CURVE('',#131,#140,#74,.T.);
#170=EDGE_CURVE('',#140,#126,#120,.T.);
#171=EDGE_CURVE('',#141,#142,#75,.T.);
#172=EDGE_CURVE('',#142,#132,#76,.T.);
#173=EDGE_CURVE('',#141,#135,#77,.T.);
#174=EDGE_CURVE('',#143,#141,#78,.T.);
#175=EDGE_CURVE('',#143,#134,#79,.T.);
#176=EDGE_CURVE('',#144,#143,#80,.T.);
#177=EDGE_CURVE('',#144,#133,#81,.T.);
#178=EDGE_CURVE('',#142,#144,#82,.T.);
#179=EDGE_CURVE('',#140,#139,#83,.T.);
#180=EDGE_CURVE('',#136,#124,#84,.T.);
#181=ORIENTED_EDGE('',*,*,#145,.T.);
#182=ORIENTED_EDGE('',*,*,#146,.T.);
#183=ORIENTED_EDGE('',*,*,#147,.T.);
#184=ORIENTED_EDGE('',*,*,#148,.T.);
#185=ORIENTED_EDGE('',*,*,#146,.F.);
#186=ORIENTED_EDGE('',*,*,#149,.F.);
#187=ORIENTED_EDGE('',*,*,#150,.F.);
#188=ORIENTED_EDGE('',*,*,#151,.F.);
#189=ORIENTED_EDGE('',*,*,#145,.F.);
#190=ORIENTED_EDGE('',*,*,#152,.T.);
#191=ORIENTED_EDGE('',*,*,#153,.F.);
#192=ORIENTED_EDGE('',*,*,#154,.T.);
#193=ORIENTED_EDGE('',*,*,#155,.F.);
#194=ORIENTED_EDGE('',*,*,#156,.T.);
#195=ORIENTED_EDGE('',*,*,#157,.F.);
#196=ORIENTED_EDGE('',*,*,#149,.T.);
#197=ORIENTED_EDGE('',*,*,#158,.T.);
#198=ORIENTED_EDGE('',*,*,#159,.T.);
#199=ORIENTED_EDGE('',*,*,#160,.T.);
#200=ORIENTED_EDGE('',*,*,#161,.T.);
#201=ORIENTED_EDGE('',*,*,#153,.T.);
#202=ORIENTED_EDGE('',*,*,#162,.T.);
#203=ORIENTED_EDGE('',*,*,#163,.T.);
#204=ORIENTED_EDGE('',*,*,#164,.T.);
#205=ORIENTED_EDGE('',*,*,#164,.F.);
#206=ORIENTED_EDGE('',*,*,#165,.F.);
#207=ORIENTED_EDGE('',*,*,#166,.F.);
#208=ORIENTED_EDGE('',*,*,#154,.F.);
#209=ORIENTED_EDGE('',*,*,#155,.T.);
#210=ORIENTED_EDGE('',*,*,#166,.T.);
#211=ORIENTED_EDGE('',*,*,#167,.T.);
#212=ORIENTED_EDGE('',*,*,#168,.T.);
#213=ORIENTED_EDGE('',*,*,#157,.T.);
#214=ORIENTED_EDGE('',*,*,#169,.T.);
#215=ORIENTED_EDGE('',*,*,#170,.T.);
#216=ORIENTED_EDGE('',*,*,#150,.T.);
#217=ORIENTED_EDGE('',*,*,#171,.T.);
#218=ORIENTED_EDGE('',*,*,#172,.T.);
#219=ORIENTED_EDGE('',*,*,#161,.F.);
#220=ORIENTED_EDGE('',*,*,#173,.F.);
#221=ORIENTED_EDGE('',*,*,#174,.T.);
#222=ORIENTED_EDGE('',*,*,#173,.T.);
#223=ORIENTED_EDGE('',*,*,#160,.F.);
#224=ORIENTED_EDGE('',*,*,#175,.F.);
#225=ORIENTED_EDGE('',*,*,#176,.T.);
#226=ORIENTED_EDGE('',*,*,#175,.T.);
#227=ORIENTED_EDGE('',*,*,#159,.F.);
#228=ORIENTED_EDGE('',*,*,#177,.F.);
#229=ORIENTED_EDGE('',*,*,#178,.T.);
#230=ORIENTED_EDGE('',*,*,#177,.T.);
#231=ORIENTED_EDGE('',*,*,#158,.F.);
#232=ORIENTED_EDGE('',*,*,#172,.F.);
#233=ORIENTED_EDGE('',*,*,#168,.F.);
#234=ORIENTED_EDGE('',*,*,#179,.F.);
#235=ORIENTED_EDGE('',*,*,#169,.F.);
#236=ORIENTED_EDGE('',*,*,#156,.F.);
#237=ORIENTED_EDGE('',*,*,#148,.F.);
#238=ORIENTED_EDGE('',*,*,#180,.F.);
#239=ORIENTED_EDGE('',*,*,#162,.F.);
#240=ORIENTED_EDGE('',*,*,#152,.F.);
#241=ORIENTED_EDGE('',*,*,#147,.F.);
#242=ORIENTED_EDGE('',*,*,#151,.T.);
#243=ORIENTED_EDGE('',*,*,#170,.F.);
#244=ORIENTED_EDGE('',*,*,#179,.T.);
#245=ORIENTED_EDGE('',*,*,#167,.F.);
#246=ORIENTED_EDGE('',*,*,#165,.T.);
#247=ORIENTED_EDGE('',*,*,#163,.F.);
#248=ORIENTED_EDGE('',*,*,#180,.T.);
#249=ORIENTED_EDGE('',*,*,#178,.F.);
#250=ORIENTED_EDGE('',*,*,#171,.F.);
#251=ORIENTED_EDGE('',*,*,#174,.F.);
#252=ORIENTED_EDGE('',*,*,#176,.F.);
#253=CYLINDRICAL_SURFACE('',#285,2.);
#254=CYLINDRICAL_SURFACE('',#293,2.);
#255=CYLINDRICAL_SURFACE('',#296,2.);
#256=CYLINDRICAL_SURFACE('',#298,2.);
#257=ADVANCED_FACE('',(#27),#253,.T.);
#258=ADVANCED_FACE('',(#28),#17,.T.);
#259=ADVANCED_FACE('',(#29,#15),#18,.T.);
#260=ADVANCED_FACE('',(#30),#254,.T.);
#261=ADVANCED_FACE('',(#31),#19,.T.);
#262=ADVANCED_FACE('',(#32),#255,.T.);
#263=ADVANCED_FACE('',(#33),#256,.T.);
#264=ADVANCED_FACE('',(#34),#20,.T.);
#265=ADVANCED_FACE('',(#35),#21,.T.);
#266=ADVANCED_FACE('',(#36),#22,.T.);
#267=ADVANCED_FACE('',(#37),#23,.T.);
#268=ADVANCED_FACE('',(#38),#24,.T.);
#269=ADVANCED_FACE('',(#39),#25,.T.);
#270=ADVANCED_FACE('',(#40,#16),#26,.F.);
#271=CLOSED_SHELL('',(#257,#258,#259,#260,#261,#262,#263,#264,#265,#266,
#267,#268,#269,#270));
#272=DERIVED_UNIT_ELEMENT(#274,1.);
#273=DERIVED_UNIT_ELEMENT(#461,-3.);
#274=(
MASS_UNIT()
NAMED_UNIT(*)
SI_UNIT(.KILO.,.GRAM.)
);
#275=DERIVED_UNIT((#272,#273));
#276=MEASURE_REPRESENTATION_ITEM('density measure',
POSITIVE_RATIO_MEASURE(7850.),#275);
#277=PROPERTY_DEFINITION_REPRESENTATION(#282,#279);
#278=PROPERTY_DEFINITION_REPRESENTATION(#283,#280);
#279=REPRESENTATION('material name',(#281),#458);
#280=REPRESENTATION('density',(#276),#458);
#281=DESCRIPTIVE_REPRESENTATION_ITEM('Steel','Steel');
#282=PROPERTY_DEFINITION('material property','material name',#468);
#283=PROPERTY_DEFINITION('material property','density of part',#468);
#284=AXIS2_PLACEMENT_3D('',#381,#307,#308);
#285=AXIS2_PLACEMENT_3D('',#382,#309,#310);
#286=AXIS2_PLACEMENT_3D('',#385,#311,#312);
#287=AXIS2_PLACEMENT_3D('',#389,#314,#315);
#288=AXIS2_PLACEMENT_3D('',#391,#317,#318);
#289=AXIS2_PLACEMENT_3D('',#397,#322,#323);
#290=AXIS2_PLACEMENT_3D('',#401,#325,#326);
#291=AXIS2_PLACEMENT_3D('',#405,#328,#329);
#292=AXIS2_PLACEMENT_3D('',#408,#331,#332);
#293=AXIS2_PLACEMENT_3D('',#417,#337,#338);
#294=AXIS2_PLACEMENT_3D('',#421,#340,#341);
#295=AXIS2_PLACEMENT_3D('',#423,#343,#344);
#296=AXIS2_PLACEMENT_3D('',#427,#347,#348);
#297=AXIS2_PLACEMENT_3D('',#429,#349,#350);
#298=AXIS2_PLACEMENT_3D('',#431,#352,#353);
#299=AXIS2_PLACEMENT_3D('',#434,#355,#356);
#300=AXIS2_PLACEMENT_3D('',#435,#357,#358);
#301=AXIS2_PLACEMENT_3D('',#441,#362,#363);
#302=AXIS2_PLACEMENT_3D('',#445,#366,#367);
#303=AXIS2_PLACEMENT_3D('',#449,#370,#371);
#304=AXIS2_PLACEMENT_3D('',#451,#373,#374);
#305=AXIS2_PLACEMENT_3D('',#453,#376,#377);
#306=AXIS2_PLACEMENT_3D('',#455,#379,#380);
#307=DIRECTION('axis',(0.,0.,1.));
#308=DIRECTION('refdir',(1.,0.,0.));
#309=DIRECTION('center_axis',(0.,0.,1.));
#310=DIRECTION('ref_axis',(0.707106781186548,-0.707106781186547,0.));
#311=DIRECTION('center_axis',(0.,0.,-1.));
#312=DIRECTION('ref_axis',(0.707106781186548,-0.707106781186547,0.));
#313=DIRECTION('',(0.,0.,-1.));
#314=DIRECTION('center_axis',(0.,0.,1.));
#315=DIRECTION('ref_axis',(0.707106781186548,-0.707106781186547,0.));
#316=DIRECTION('',(0.,0.,1.));
#317=DIRECTION('center_axis',(0.,-1.,0.));
#318=DIRECTION('ref_axis',(1.,0.,0.));
#319=DIRECTION('',(1.,0.,0.));
#320=DIRECTION('',(0.,0.,1.));
#321=DIRECTION('',(-1.,0.,0.));
#322=DIRECTION('center_axis',(0.,0.,1.));
#323=DIRECTION('ref_axis',(1.,0.,0.));
#324=DIRECTION('',(0.,1.,0.));
#325=DIRECTION('center_axis',(0.,0.,-1.));
#326=DIRECTION('ref_axis',(0.707106781186547,0.707106781186548,0.));
#327=DIRECTION('',(-1.,0.,0.));
#328=DIRECTION('center_axis',(0.,0.,-1.));
#329=DIRECTION('ref_axis',(-0.707106781186549,0.707106781186546,0.));
#330=DIRECTION('',(0.,-1.,0.));
#331=DIRECTION('center_axis',(0.,0.,-1.));
#332=DIRECTION('ref_axis',(-0.707106781186546,-0.707106781186549,0.));
#333=DIRECTION('',(-1.,0.,0.));
#334=DIRECTION('',(0.,1.,0.));
#335=DIRECTION('',(1.,0.,0.));
#336=DIRECTION('',(0.,-1.,0.));
#337=DIRECTION('center_axis',(0.,0.,1.));
#338=DIRECTION('ref_axis',(0.707106781186547,0.707106781186548,0.));
#339=DIRECTION('',(0.,0.,-1.));
#340=DIRECTION('center_axis',(0.,0.,1.));
#341=DIRECTION('ref_axis',(0.707106781186547,0.707106781186548,0.));
#342=DIRECTION('',(0.,0.,1.));
#343=DIRECTION('center_axis',(0.,1.,0.));
#344=DIRECTION('ref_axis',(-1.,0.,0.));
#345=DIRECTION('',(1.,0.,0.));
#346=DIRECTION('',(0.,0.,-1.));
#347=DIRECTION('center_axis',(0.,0.,1.));
#348=DIRECTION('ref_axis',(-0.707106781186549,0.707106781186546,0.));
#349=DIRECTION('center_axis',(0.,0.,1.));
#350=DIRECTION('ref_axis',(-0.707106781186549,0.707106781186546,0.));
#351=DIRECTION('',(0.,0.,1.));
#352=DIRECTION('center_axis',(0.,0.,1.));
#353=DIRECTION('ref_axis',(-0.707106781186546,-0.707106781186549,0.));
#354=DIRECTION('',(0.,0.,-1.));
#355=DIRECTION('center_axis',(0.,0.,1.));
#356=DIRECTION('ref_axis',(-0.707106781186546,-0.707106781186549,0.));
#357=DIRECTION('center_axis',(-1.,0.,0.));
#358=DIRECTION('ref_axis',(0.,-1.,0.));
#359=DIRECTION('',(0.,-1.,0.));
#360=DIRECTION('',(0.,0.,1.));
#361=DIRECTION('',(0.,0.,1.));
#362=DIRECTION('center_axis',(0.,-1.,0.));
#363=DIRECTION('ref_axis',(1.,0.,0.));
#364=DIRECTION('',(1.,0.,0.));
#365=DIRECTION('',(0.,0.,1.));
#366=DIRECTION('center_axis',(1.,0.,0.));
#367=DIRECTION('ref_axis',(0.,1.,0.));
#368=DIRECTION('',(0.,1.,0.));
#369=DIRECTION('',(0.,0.,1.));
#370=DIRECTION('center_axis',(0.,1.,0.));
#371=DIRECTION('ref_axis',(-1.,0.,0.));
#372=DIRECTION('',(-1.,0.,0.));
#373=DIRECTION('center_axis',(-1.,0.,0.));
#374=DIRECTION('ref_axis',(0.,-1.,0.));
#375=DIRECTION('',(0.,1.,0.));
#376=DIRECTION('center_axis',(1.,0.,0.));
#377=DIRECTION('ref_axis',(0.,1.,0.));
#378=DIRECTION('',(0.,-1.,0.));
#379=DIRECTION('center_axis',(0.,0.,1.));
#380=DIRECTION('ref_axis',(1.,0.,0.));
#381=CARTESIAN_POINT('',(0.,0.,0.));
#382=CARTESIAN_POINT('Origin',(3.82178272318872,-7.64035799943192,0.));
#383=CARTESIAN_POINT('',(5.82178272318872,-7.64035799943191,15.));
#384=CARTESIAN_POINT('',(3.82178272318872,-9.64035799943192,15.));
#385=CARTESIAN_POINT('Origin',(3.82178272318872,-7.64035799943192,15.));
#386=CARTESIAN_POINT('',(3.82178272318872,-9.64035799943192,0.));
#387=CARTESIAN_POINT('',(3.82178272318872,-9.64035799943192,0.));
#388=CARTESIAN_POINT('',(5.82178272318872,-7.64035799943191,0.));
#389=CARTESIAN_POINT('Origin',(3.82178272318872,-7.64035799943192,0.));
#390=CARTESIAN_POINT('',(5.82178272318872,-7.64035799943192,0.));
#391=CARTESIAN_POINT('Origin',(-44.1782172768113,-9.64035799943192,0.));
#392=CARTESIAN_POINT('',(-42.1782172768113,-9.64035799943192,15.));
#393=CARTESIAN_POINT('',(5.82178272318872,-9.64035799943192,15.));
#394=CARTESIAN_POINT('',(-42.1782172768113,-9.64035799943192,0.));
#395=CARTESIAN_POINT('',(-42.1782172768113,-9.64035799943192,0.));
#396=CARTESIAN_POINT('',(5.82178272318872,-9.64035799943192,0.));
#397=CARTESIAN_POINT('Origin',(-19.1782172768113,5.35964200056808,15.));
#398=CARTESIAN_POINT('',(5.82178272318872,18.3596420005681,15.));
#399=CARTESIAN_POINT('',(5.82178272318872,20.3596420005681,15.));
#400=CARTESIAN_POINT('',(3.82178272318872,20.3596420005681,15.));
#401=CARTESIAN_POINT('Origin',(3.82178272318872,18.3596420005681,15.));
#402=CARTESIAN_POINT('',(-42.1782172768113,20.3596420005681,15.));
#403=CARTESIAN_POINT('',(-44.1782172768113,20.3596420005681,15.));
#404=CARTESIAN_POINT('',(-44.1782172768113,18.3596420005681,15.));
#405=CARTESIAN_POINT('Origin',(-42.1782172768113,18.3596420005681,15.));
#406=CARTESIAN_POINT('',(-44.1782172768113,-7.64035799943192,15.));
#407=CARTESIAN_POINT('',(-44.1782172768113,-9.64035799943192,15.));
#408=CARTESIAN_POINT('Origin',(-42.1782172768113,-7.64035799943192,15.));
#409=CARTESIAN_POINT('',(0.821782723188722,-4.64035799943192,15.));
#410=CARTESIAN_POINT('',(-39.1782172768113,-4.64035799943192,15.));
#411=CARTESIAN_POINT('',(0.821782723188722,-4.64035799943192,15.));
#412=CARTESIAN_POINT('',(-39.1782172768113,15.3596420005681,15.));
#413=CARTESIAN_POINT('',(-39.1782172768113,-4.64035799943192,15.));
#414=CARTESIAN_POINT('',(0.821782723188722,15.3596420005681,15.));
#415=CARTESIAN_POINT('',(-39.1782172768113,15.3596420005681,15.));
#416=CARTESIAN_POINT('',(0.821782723188722,15.3596420005681,15.));
#417=CARTESIAN_POINT('Origin',(3.82178272318872,18.3596420005681,0.));
#418=CARTESIAN_POINT('',(5.82178272318872,18.3596420005681,0.));
#419=CARTESIAN_POINT('',(5.82178272318872,18.3596420005681,0.));
#420=CARTESIAN_POINT('',(3.82178272318872,20.3596420005681,0.));
#421=CARTESIAN_POINT('Origin',(3.82178272318872,18.3596420005681,0.));
#422=CARTESIAN_POINT('',(3.82178272318872,20.3596420005681,0.));
#423=CARTESIAN_POINT('Origin',(5.82178272318872,20.3596420005681,0.));
#424=CARTESIAN_POINT('',(-42.1782172768113,20.3596420005681,0.));
#425=CARTESIAN_POINT('',(-44.1782172768113,20.3596420005681,0.));
#426=CARTESIAN_POINT('',(-42.1782172768113,20.3596420005681,0.));
#427=CARTESIAN_POINT('Origin',(-42.1782172768113,18.3596420005681,0.));
#428=CARTESIAN_POINT('',(-44.1782172768113,18.3596420005681,0.));
#429=CARTESIAN_POINT('Origin',(-42.1782172768113,18.3596420005681,0.));
#430=CARTESIAN_POINT('',(-44.1782172768113,18.3596420005681,0.));
#431=CARTESIAN_POINT('Origin',(-42.1782172768113,-7.64035799943192,0.));
#432=CARTESIAN_POINT('',(-44.1782172768113,-7.64035799943192,0.));
#433=CARTESIAN_POINT('',(-44.1782172768113,-7.64035799943192,0.));
#434=CARTESIAN_POINT('Origin',(-42.1782172768113,-7.64035799943192,0.));
#435=CARTESIAN_POINT('Origin',(0.821782723188722,15.3596420005681,0.));
#436=CARTESIAN_POINT('',(0.821782723188722,15.3596420005681,0.));
#437=CARTESIAN_POINT('',(0.821782723188722,-4.64035799943192,0.));
#438=CARTESIAN_POINT('',(0.821782723188722,15.3596420005681,0.));
#439=CARTESIAN_POINT('',(0.821782723188722,-4.64035799943192,0.));
#440=CARTESIAN_POINT('',(0.821782723188722,15.3596420005681,0.));
#441=CARTESIAN_POINT('Origin',(-39.1782172768113,15.3596420005681,0.));
#442=CARTESIAN_POINT('',(-39.1782172768113,15.3596420005681,0.));
#443=CARTESIAN_POINT('',(-39.1782172768113,15.3596420005681,0.));
#444=CARTESIAN_POINT('',(-39.1782172768113,15.3596420005681,0.));
#445=CARTESIAN_POINT('Origin',(-39.1782172768113,-4.64035799943192,0.));
#446=CARTESIAN_POINT('',(-39.1782172768113,-4.64035799943192,0.));
#447=CARTESIAN_POINT('',(-39.1782172768113,-4.64035799943192,0.));
#448=CARTESIAN_POINT('',(-39.1782172768113,-4.64035799943192,0.));
#449=CARTESIAN_POINT('Origin',(0.821782723188722,-4.64035799943192,0.));
#450=CARTESIAN_POINT('',(0.821782723188722,-4.64035799943192,0.));
#451=CARTESIAN_POINT('Origin',(-44.1782172768113,20.3596420005681,0.));
#452=CARTESIAN_POINT('',(-44.1782172768113,-9.64035799943192,0.));
#453=CARTESIAN_POINT('Origin',(5.82178272318872,-9.64035799943192,0.));
#454=CARTESIAN_POINT('',(5.82178272318872,20.3596420005681,0.));
#455=CARTESIAN_POINT('Origin',(-19.1782172768113,5.35964200056808,0.));
#456=UNCERTAINTY_MEASURE_WITH_UNIT(LENGTH_MEASURE(0.01),#460,
'DISTANCE_ACCURACY_VALUE',
'Maximum model space distance between geometric entities at asserted c
onnectivities');
#457=UNCERTAINTY_MEASURE_WITH_UNIT(LENGTH_MEASURE(0.01),#460,
'DISTANCE_ACCURACY_VALUE',
'Maximum model space distance between geometric entities at asserted c
onnectivities');
#458=(
GEOMETRIC_REPRESENTATION_CONTEXT(3)
GLOBAL_UNCERTAINTY_ASSIGNED_CONTEXT((#456))
GLOBAL_UNIT_ASSIGNED_CONTEXT((#460,#462,#463))
REPRESENTATION_CONTEXT('','3D')
);
#459=(
GEOMETRIC_REPRESENTATION_CONTEXT(3)
GLOBAL_UNCERTAINTY_ASSIGNED_CONTEXT((#457))
GLOBAL_UNIT_ASSIGNED_CONTEXT((#460,#462,#463))
REPRESENTATION_CONTEXT('','3D')
);
#460=(
LENGTH_UNIT()
NAMED_UNIT(*)
SI_UNIT(.MILLI.,.METRE.)
);
#461=(
LENGTH_UNIT()
NAMED_UNIT(*)
SI_UNIT($,.METRE.)
);
#462=(
NAMED_UNIT(*)
PLANE_ANGLE_UNIT()
SI_UNIT($,.RADIAN.)
);
#463=(
NAMED_UNIT(*)
SI_UNIT($,.STERADIAN.)
SOLID_ANGLE_UNIT()
);
#464=SHAPE_DEFINITION_REPRESENTATION(#465,#466);
#465=PRODUCT_DEFINITION_SHAPE('',$,#468);
#466=SHAPE_REPRESENTATION('',(#284),#458);
#467=PRODUCT_DEFINITION_CONTEXT('part definition',#472,'design');
#468=PRODUCT_DEFINITION('2026-05-11-13-20-19-543','servo bracket',#469,
#467);
#469=PRODUCT_DEFINITION_FORMATION('',$,#474);
#470=PRODUCT_RELATED_PRODUCT_CATEGORY('servo bracket','servo bracket',(#474));
#471=APPLICATION_PROTOCOL_DEFINITION('international standard',
'automotive_design',2009,#472);
#472=APPLICATION_CONTEXT(
'Core Data for Automotive Mechanical Design Process');
#473=PRODUCT_CONTEXT('part definition',#472,'mechanical');
#474=PRODUCT('2026-05-11-13-20-19-543','servo bracket',$,(#473));
#475=PRESENTATION_STYLE_ASSIGNMENT((#476));
#476=SURFACE_STYLE_USAGE(.BOTH.,#477);
#477=SURFACE_SIDE_STYLE('',(#478));
#478=SURFACE_STYLE_FILL_AREA(#479);
#479=FILL_AREA_STYLE('Steel - Satin',(#480));
#480=FILL_AREA_STYLE_COLOUR('Steel - Satin',#481);
#481=COLOUR_RGB('Steel - Satin',0.627450980392157,0.627450980392157,0.627450980392157);
ENDSEC;
END-ISO-10303-21;
